<svg xmlns="http://www.w3.org/2000/svg" width="55.18" height="69.883" viewBox="0 0 55.18 69.883">
  <g id="noun-audio-254788" transform="translate(-144.293 -18.289)">
    <path id="Path_87" data-name="Path 87" d="M256.67,174.16V179.1a1.234,1.234,0,0,0,1.235,1.235h3.7l5.363,4.636a1.235,1.235,0,0,0,2.045-.932V169.221a1.235,1.235,0,0,0-2.045-.932l-5.363,4.636h-3.7a1.235,1.235,0,0,0-1.235,1.235Zm5.433,1.235a1.235,1.235,0,0,0,.81-.3l3.634-3.154v9.384l-3.634-3.154a1.235,1.235,0,0,0-.81-.3h-2.964v-2.47Zm14.323,1.235a3.7,3.7,0,0,0-3.7-3.7,1.235,1.235,0,0,0,0,2.47,1.235,1.235,0,0,1,0,2.47,1.235,1.235,0,1,0,0,2.469,3.7,3.7,0,0,0,3.7-3.7Zm4.939,0a8.643,8.643,0,0,0-8.643-8.643,1.235,1.235,0,0,0,0,2.47,6.173,6.173,0,1,1,0,12.347,1.235,1.235,0,0,0,0,2.47,8.643,8.643,0,0,0,8.643-8.643Z" transform="translate(-97.186 -129.567)" fill="#e3ca3c" stroke="#e3ca3c" stroke-width="0.75" fill-rule="evenodd"/>
    <path id="Path_88" data-name="Path 88" d="M198.863,228.8a1.252,1.252,0,0,1,.131.568v34.558a1.234,1.234,0,0,1-1.235,1.235H145.9a1.234,1.234,0,0,1-1.235-1.235V229.365a1.238,1.238,0,0,1,.123-.551,1.263,1.263,0,0,1,.371-.45l6.915-5.3v3.112l-4.939,3.784v3.1L163.6,245.4h16.463l16.463-12.347v-3.1l-4.939-3.784v-3.112l6.915,5.3a1.235,1.235,0,0,1,.362.433Zm-37.554,17.974-14.171,14.171v-24.8Zm2.392,1.1h16.262l14.816,14.816h-45.9Zm18.654-1.1,14.171-10.629v24.8Z" transform="translate(0 -177.361)" fill="#e3ca3c" stroke="#e3ca3c" stroke-width="0.75" fill-rule="evenodd"/>
    <path id="Path_89" data-name="Path 89" d="M226.451,31.5a1.235,1.235,0,0,0-.362-.873L214.483,19.025a1.234,1.234,0,0,0-.873-.361H183.236A1.234,1.234,0,0,0,182,19.9V60.644h2.47V21.133h27.163V32.245a1.235,1.235,0,0,0,1.234,1.235h11.112V60.643h2.47ZM214.1,31.011V22.146l8.865,8.865Z" transform="translate(-32.395)" fill="#e3ca3c" stroke="#e3ca3c" stroke-width="0.75" fill-rule="evenodd"/>
  </g>
</svg>
