<svg id="noun-comment-1026812" xmlns="http://www.w3.org/2000/svg" width="15.479" height="15.63" viewBox="0 0 15.479 15.63">
  <path id="Path_82" data-name="Path 82" d="M172.561,87.359H162.075a2.48,2.48,0,0,0-2.474,2.474v7.785a2.48,2.48,0,0,0,2.474,2.474h1.906a.407.407,0,0,1,.408.408v2.088a.4.4,0,0,0,.522.386c.613-.159,1.68-.749,2.633-2.656a.4.4,0,0,1,.363-.227h4.7a2.48,2.48,0,0,0,2.474-2.474V89.833a2.549,2.549,0,0,0-2.519-2.474Zm-1.271,9.17h-7.944v-.908h7.944Zm0-2.5h-7.944v-.908h7.944Zm0-2.5h-7.944v-.908h7.944Z" transform="translate(-159.601 -87.359)" fill="#fff"/>
</svg>
