<svg id="noun-like-2069162" xmlns="http://www.w3.org/2000/svg" width="20.085" height="20" viewBox="0 0 20.085 20">
  <path id="Path_46" data-name="Path 46" d="M226.057,69.839h.659l2.212,3.645.161,3.594a.525.525,0,0,0,.55.5c4.011-.179,3.068-4.049,2.445-6.834l5.882-.224A1.709,1.709,0,0,0,238.4,67.3a2.418,2.418,0,0,0,.536-.76c.364-.816-.295-1.274-1.01-1.526a1.972,1.972,0,0,0,.547-.986c.188-.885-.677-1.31-1.509-1.511a2.68,2.68,0,0,0,.637-.936c.628-1.672-1.806-1.562-1.812-1.562-2.639.118-5.283.21-7.924.315a.521.521,0,0,0-.46.32l-.322.706-1-.036a.526.526,0,0,0-.541.507c-.083,2.44-.007,5.026-.011,7.482a.522.522,0,0,0,.523.523Z" transform="translate(-219.301 -57.578)" fill="#fff"/>
  <path id="Path_47" data-name="Path 47" d="M127.255,264.311h2.407a.526.526,0,0,0,.525-.525v-7.281a.525.525,0,0,0-.525-.525h-2.407a.525.525,0,0,0-.525.525v7.281A.526.526,0,0,0,127.255,264.311Z" transform="translate(-124.466 -252.132)" fill="#fff"/>
  <g id="Group_545" data-name="Group 545" transform="translate(0.001 0.014)">
    <path id="Path_48" data-name="Path 48" d="M.022-.2H.017a0,0,0,0,0,0,0s0,0,0,0h0a0,0,0,0,1,0,0s0,0,0,0h0Z" transform="translate(-0.016 0.203)" fill="#fff"/>
  </g>
  <g id="Group_546" data-name="Group 546" transform="translate(0.009 0.014)">
    <path id="Path_49" data-name="Path 49" d="M.021-.152h0v0h0V-.15h0Z" transform="translate(-0.016 0.156)" fill="#fff"/>
  </g>
  <g id="Group_547" data-name="Group 547" transform="translate(0.014 0.014)">
    <path id="Path_50" data-name="Path 50" d="M.022-.153H.016a0,0,0,0,0,0,0v0h0v0Zm0,0h0Z" transform="translate(-0.016 0.156)" fill="#fff"/>
  </g>
  <g id="Group_548" data-name="Group 548" transform="translate(0.022 0.014)">
    <path id="Path_51" data-name="Path 51" d="M.019-.154h0Zm0,0v0H.016s0,0,0,0h0v0h0Z" transform="translate(-0.016 0.156)" fill="#fff"/>
  </g>
  <g id="Group_549" data-name="Group 549" transform="translate(0.029 0.014)">
    <path id="Path_52" data-name="Path 52" d="M0-.2v0H0v0H0v0H0v0Z" transform="translate(0 0.203)" fill="#fff"/>
  </g>
  <g id="Group_550" data-name="Group 550" transform="translate(0.035 0.014)">
    <path id="Path_53" data-name="Path 53" d="M.022-.153H.016a0,0,0,0,0,0,0v0h0v0Zm0,0h0Z" transform="translate(-0.016 0.156)" fill="#fff"/>
  </g>
  <g id="Group_551" data-name="Group 551" transform="translate(0.042 0.014)">
    <path id="Path_54" data-name="Path 54" d="M.02-.214v0h0V-.219H.016a0,0,0,0,0,0,0v0h0Zm0,0h0v0h0v0Z" transform="translate(-0.016 0.219)" fill="#fff"/>
  </g>
  <g id="Group_552" data-name="Group 552" transform="translate(0.054 0.014)">
    <path id="Path_55" data-name="Path 55" d="M.019-.218h0v0h0Zm0,0h0v0H.016V-.21h0Z" transform="translate(-0.016 0.219)" fill="#fff"/>
  </g>
  <g id="Group_553" data-name="Group 553" transform="translate(0.062 0.011)">
    <path id="Path_56" data-name="Path 56" d="M0-.148H0l0,0v0h0L0-.154H0Z" transform="translate(0 0.156)" fill="#fff"/>
  </g>
  <g id="Group_554" data-name="Group 554" transform="translate(0.073 0.014)">
    <path id="Path_57" data-name="Path 57" d="M.019-.154h0Zm0,0v0H.016s0,0,0,0h0v0h0Z" transform="translate(-0.016 0.156)" fill="#fff"/>
  </g>
  <g id="Group_555" data-name="Group 555" transform="translate(0.081 0.014)">
    <path id="Path_58" data-name="Path 58" d="M.016-.21h0V-.219h0Z" transform="translate(-0.016 0.219)" fill="#fff"/>
  </g>
  <g id="Group_556" data-name="Group 556" transform="translate(0.085 0.014)">
    <path id="Path_59" data-name="Path 59" d="M.016-.213h0V-.219h0Zm0,0h0v0h0Z" transform="translate(-0.016 0.219)" fill="#fff"/>
  </g>
  <g id="Group_557" data-name="Group 557" transform="translate(0.088 0.014)">
    <path id="Path_60" data-name="Path 60" d="M0-.21v0H0v0H0v0H0v0H0Z" transform="translate(0 0.219)" fill="#fff"/>
  </g>
  <g id="Group_558" data-name="Group 558" transform="translate(0.094 0.014)">
    <path id="Path_61" data-name="Path 61" d="M.021-.152h0v0h0V-.15h0Z" transform="translate(-0.016 0.156)" fill="#fff"/>
  </g>
  <g id="Group_559" data-name="Group 559" transform="translate(0.099 0.014)">
    <path id="Path_62" data-name="Path 62" d="M.016-.213h0V-.219h0Zm0,0h0v0h0Z" transform="translate(-0.016 0.219)" fill="#fff"/>
  </g>
  <g id="Group_560" data-name="Group 560" transform="translate(0.103 0.014)">
    <path id="Path_63" data-name="Path 63" d="M.019-.151h0v0h0v0h0Zm0,0h0v0h0a0,0,0,0,0,0,0v0Z" transform="translate(-0.016 0.156)" fill="#fff"/>
  </g>
  <g id="Group_561" data-name="Group 561" transform="translate(0 0.003)">
    <path id="Path_64" data-name="Path 64" d="M0-.21v0H0v0H0v0H0v0H0Z" transform="translate(0 0.219)" fill="#fff"/>
  </g>
  <g id="Group_562" data-name="Group 562" transform="translate(0.005 0.003)">
    <path id="Path_65" data-name="Path 65" d="M.021-.152h0v0h0V-.15h0Z" transform="translate(-0.016 0.156)" fill="#fff"/>
  </g>
  <g id="Group_563" data-name="Group 563" transform="translate(0.011 0.003)">
    <path id="Path_66" data-name="Path 66" d="M.019-.151h0v0h0v0h0Zm0,0h0v0h0a0,0,0,0,0,0,0v0Z" transform="translate(-0.016 0.156)" fill="#fff"/>
  </g>
  <g id="Group_564" data-name="Group 564" transform="translate(0.019 0.003)">
    <path id="Path_67" data-name="Path 67" d="M.022-.151h0V-.156h0v0h0v0h0v0h0v0h0V-.15H.022Z" transform="translate(-0.016 0.156)" fill="#fff"/>
  </g>
  <g id="Group_565" data-name="Group 565" transform="translate(0.034 0.003)">
    <path id="Path_68" data-name="Path 68" d="M0-.2v0H0v0H0v0H0v0Z" transform="translate(0 0.203)" fill="#fff"/>
  </g>
  <g id="Group_566" data-name="Group 566" transform="translate(0.04 0.003)">
    <path id="Path_69" data-name="Path 69" d="M.022-.215v0h0v0h0v0h0V-.21h0v0h0Z" transform="translate(-0.016 0.219)" fill="#fff"/>
  </g>
  <g id="Group_567" data-name="Group 567" transform="translate(0.048 0.003)">
    <path id="Path_70" data-name="Path 70" d="M.022-.153H.016a0,0,0,0,0,0,0v0h0v0Zm0,0h0Z" transform="translate(-0.016 0.156)" fill="#fff"/>
  </g>
  <g id="Group_568" data-name="Group 568" transform="translate(0.06 0.003)">
    <path id="Path_71" data-name="Path 71" d="M.031-.2h0l0-.006V-.2h0V-.2h0l0,.006V-.2h0Z" transform="translate(-0.031 0.203)" fill="#fff"/>
  </g>
  <g id="Group_569" data-name="Group 569" transform="translate(0.068 0.003)">
    <path id="Path_72" data-name="Path 72" d="M.019-.151h0v0h0v0h0Zm0,0h0v0h0a0,0,0,0,0,0,0v0Z" transform="translate(-0.016 0.156)" fill="#fff"/>
  </g>
  <g id="Group_570" data-name="Group 570" transform="translate(0.076 0.003)">
    <path id="Path_73" data-name="Path 73" d="M.016-.154v0h0v0h0V-.156H.016S.016-.155.016-.154Z" transform="translate(-0.016 0.156)" fill="#fff"/>
  </g>
  <g id="Group_571" data-name="Group 571" transform="translate(0.084 0.003)">
    <path id="Path_74" data-name="Path 74" d="M.022-.153v0h0v0h0v0h0V-.15H.021Z" transform="translate(-0.016 0.156)" fill="#fff"/>
  </g>
  <g id="Group_572" data-name="Group 572" transform="translate(0.096 0.003)">
    <path id="Path_75" data-name="Path 75" d="M.031-.2H.037v0h0v0h0Zm0,0v0h0Z" transform="translate(-0.031 0.203)" fill="#fff"/>
  </g>
  <g id="Group_573" data-name="Group 573" transform="translate(0.104 0.003)">
    <path id="Path_76" data-name="Path 76" d="M.021-.152h0v0h0V-.15h0Z" transform="translate(-0.016 0.156)" fill="#fff"/>
  </g>
  <g id="Group_574" data-name="Group 574" transform="translate(0.109 0.003)">
    <path id="Path_77" data-name="Path 77" d="M.019-.151h0v0h0v0h0Zm0,0h0v0h0a0,0,0,0,0,0,0v0Z" transform="translate(-0.016 0.156)" fill="#fff"/>
  </g>
  <g id="Group_575" data-name="Group 575" transform="translate(0.116 0)">
    <path id="Path_78" data-name="Path 78" d="M-.014-.21h0V-.218h0Zm0,0h0v0h0Z" transform="translate(0.016 0.219)" fill="#fff"/>
  </g>
  <g id="Group_576" data-name="Group 576" transform="translate(0.121 0.003)">
    <path id="Path_79" data-name="Path 79" d="M.022-.153H.016a0,0,0,0,0,0,0v0h0v0Zm0,0h0Z" transform="translate(-0.016 0.156)" fill="#fff"/>
  </g>
  <g id="Group_577" data-name="Group 577" transform="translate(0.129 0.003)">
    <path id="Path_80" data-name="Path 80" d="M.021-.15v0h0v0h0a0,0,0,0,0,0,0v0h0Z" transform="translate(-0.016 0.156)" fill="#fff"/>
  </g>
  <g id="Group_578" data-name="Group 578" transform="translate(0.135 0.003)">
    <path id="Path_81" data-name="Path 81" d="M0-.2v0H0v0H0v0H0v0Z" transform="translate(0 0.203)" fill="#fff"/>
  </g>
</svg>
