<svg xmlns="http://www.w3.org/2000/svg" width="14.667" height="14.667" viewBox="0 0 14.667 14.667">
  <path id="noun-open-in-new-tab-3629744" d="M78.067,0V1.467H72.2a.733.733,0,0,0-.733.733V12.467a.733.733,0,0,0,.733.733H82.467a.733.733,0,0,0,.733-.733V6.6h1.467v5.867a2.2,2.2,0,0,1-2.2,2.2H72.2a2.2,2.2,0,0,1-2.2-2.2V2.2A2.2,2.2,0,0,1,72.2,0Zm5.867,0h.014L84,0l-.065,0a.74.74,0,0,1,.109.008l.038.007.048.011.034.01.043.016.038.016.045.023.027.015q.028.017.055.037a.742.742,0,0,1,.082.071L84.386.156A.737.737,0,0,1,84.51.28L84.523.3q.02.027.037.055l.016.027c.008.015.016.029.023.045s.011.025.016.038.011.029.016.044.007.022.01.034.008.032.011.048,0,.025.007.038,0,.03.005.045,0,.027,0,.04,0,.015,0,.024V4.4H83.2V2.5L77.852,7.852a.734.734,0,0,1-.968.061l-.069-.061a.734.734,0,0,1,0-1.037l5.347-5.348H80.267V0Z" transform="translate(-70)" fill="#c22978"/>
</svg>
