<svg xmlns="http://www.w3.org/2000/svg" width="40.308" height="65.755" viewBox="0 0 40.308 65.755">
  <g id="noun-mic-off-4919802" transform="translate(-206.739 -46.286)">
    <path id="Path_25" data-name="Path 25" d="M274.291,91.213A12.408,12.408,0,0,1,261.9,78.82V58.679a12.393,12.393,0,1,1,24.787,0V78.82A12.408,12.408,0,0,1,274.291,91.213Zm0-41.466a8.941,8.941,0,0,0-8.932,8.932v20.14a8.932,8.932,0,0,0,17.863,0V58.679a8.941,8.941,0,0,0-8.932-8.932Z" transform="translate(-47.4 0)" fill="#679ed5"/>
    <path id="Path_26" data-name="Path 26" d="M226.892,236.129a20.153,20.153,0,0,1-20.153-20.153V205.965H210.2v10.011a16.692,16.692,0,0,0,33.384,0V205.965h3.462v10.011a20.153,20.153,0,0,1-20.153,20.153Z" transform="translate(0 -137.217)" fill="#679ed5"/>
    <path id="Path_27" data-name="Path 27" d="M337.7,408.09h3.462v13.128H337.7Z" transform="translate(-112.538 -310.908)" fill="#679ed5"/>
    <path id="Path_28" data-name="Path 28" d="M274.2,193.66h21.324v3.462H274.2Z" transform="translate(-57.971 -126.643)" fill="#679ed5"/>
    <path id="Path_29" data-name="Path 29" d="M280.93,489.11h19.432v3.462H280.93Z" transform="translate(-63.754 -380.531)" fill="#679ed5"/>
  </g>
</svg>
