<svg xmlns="http://www.w3.org/2000/svg" width="73.024" height="60.841" viewBox="0 0 73.024 60.841">
  <g id="noun-voice-message-4453130" transform="translate(-111.757 -81.68)">
    <path id="Path_90" data-name="Path 90" d="M173.84,81.93H122.688a10.692,10.692,0,0,0-10.681,10.681V118.7a10.7,10.7,0,0,0,10.681,10.681h20.97v10.9a2,2,0,0,0,2.994,1.723l21.875-12.626h5.324A10.7,10.7,0,0,0,184.531,118.7V92.62a10.711,10.711,0,0,0-10.689-10.689Zm6.705,36.769a6.718,6.718,0,0,1-6.705,6.705h-5.852a2.057,2.057,0,0,0-1,.264l-19.349,11.176v-9.452a1.984,1.984,0,0,0-1.988-1.988H122.688a6.718,6.718,0,0,1-6.705-6.705V92.62a6.712,6.712,0,0,1,6.705-6.705h51.144a6.712,6.712,0,0,1,6.705,6.705V118.7Z" transform="translate(0)" fill="#47c857" stroke="#fff" stroke-width="0.5"/>
    <path id="Path_91" data-name="Path 91" d="M174.8,211.62a1.984,1.984,0,0,0-1.988,1.988v5.358a1.988,1.988,0,0,0,3.975,0v-5.358A1.984,1.984,0,0,0,174.8,211.62Z" transform="translate(-51.543 -109.933)" fill="#47c857" stroke="#fff" stroke-width="0.5"/>
    <path id="Path_92" data-name="Path 92" d="M211.261,211.62a1.984,1.984,0,0,0-1.988,1.988v5.358a1.988,1.988,0,0,0,3.975,0v-5.358A1.984,1.984,0,0,0,211.261,211.62Z" transform="translate(-82.448 -109.933)" fill="#47c857" stroke="#fff" stroke-width="0.5"/>
    <path id="Path_93" data-name="Path 93" d="M247.771,181.11a1.984,1.984,0,0,0-1.988,1.988v13.266a1.988,1.988,0,0,0,3.975,0V183.1A1.99,1.99,0,0,0,247.771,181.11Z" transform="translate(-113.396 -84.071)" fill="#47c857" stroke="#fff" stroke-width="0.5"/>
    <path id="Path_94" data-name="Path 94" d="M284.231,189.62a1.984,1.984,0,0,0-1.988,1.988v10.664a1.988,1.988,0,1,0,3.975,0V191.608A1.99,1.99,0,0,0,284.231,189.62Z" transform="translate(-144.302 -91.284)" fill="#47c857" stroke="#fff" stroke-width="0.5"/>
    <path id="Path_95" data-name="Path 95" d="M320.681,189.62a1.984,1.984,0,0,0-1.988,1.988v10.664a1.988,1.988,0,1,0,3.975,0V191.608A1.989,1.989,0,0,0,320.681,189.62Z" transform="translate(-175.199 -91.284)" fill="#47c857" stroke="#fff" stroke-width="0.5"/>
    <path id="Path_96" data-name="Path 96" d="M357.2,151.2a1.984,1.984,0,0,0-1.988,1.988v22.377a1.988,1.988,0,0,0,3.975,0V153.188A1.99,1.99,0,0,0,357.2,151.2Z" transform="translate(-206.156 -58.717)" fill="#47c857" stroke="#fff" stroke-width="0.5"/>
    <path id="Path_97" data-name="Path 97" d="M393.651,136.53a1.984,1.984,0,0,0-1.988,1.988v26.84a1.988,1.988,0,1,0,3.975,0v-26.84a1.99,1.99,0,0,0-1.988-1.988Z" transform="translate(-237.053 -46.282)" fill="#47c857" stroke="#fff" stroke-width="0.5"/>
    <path id="Path_98" data-name="Path 98" d="M430.111,168.887a1.984,1.984,0,0,0-1.988,1.988V187.86a1.988,1.988,0,1,0,3.975,0V170.874a1.984,1.984,0,0,0-1.988-1.988Z" transform="translate(-267.958 -73.709)" fill="#47c857" stroke="#fff" stroke-width="0.5"/>
    <path id="Path_99" data-name="Path 99" d="M466.621,211.62a1.984,1.984,0,0,0-1.988,1.988v5.358a1.988,1.988,0,1,0,3.975,0v-5.358A1.99,1.99,0,0,0,466.621,211.62Z" transform="translate(-298.906 -109.933)" fill="#47c857" stroke="#fff" stroke-width="0.5"/>
    <path id="Path_100" data-name="Path 100" d="M503.081,155.46a1.984,1.984,0,0,0-1.988,1.988v21.072a1.988,1.988,0,1,0,3.975,0V157.448A1.984,1.984,0,0,0,503.081,155.46Z" transform="translate(-329.812 -62.328)" fill="#47c857" stroke="#fff" stroke-width="0.5"/>
  </g>
</svg>
